<svg width="16" height="17" viewBox="0 0 16 17" fill="none" xmlns="http://www.w3.org/2000/svg">
<path fill-rule="evenodd" clip-rule="evenodd" d="M5.78101 9.33551C5.77969 9.23826 5.73991 9.14547 5.67039 9.07745C5.60088 9.00943 5.50726 8.97167 5.41 8.97247H4.11C4.01257 8.9714 3.91869 9.00904 3.84895 9.07709C3.77922 9.14513 3.73932 9.23808 3.73801 9.33551V10.6085C3.73866 10.6567 3.74879 10.7043 3.76784 10.7485C3.78689 10.7928 3.81447 10.8329 3.84901 10.8665C3.88356 10.9001 3.92438 10.9266 3.96916 10.9445C4.01394 10.9623 4.0618 10.9711 4.11 10.9705H5.41C5.45815 10.9711 5.50595 10.9623 5.55067 10.9445C5.5954 10.9266 5.63616 10.9001 5.67062 10.8665C5.70509 10.8328 5.73259 10.7927 5.75153 10.7485C5.77047 10.7042 5.78048 10.6566 5.78101 10.6085V9.34045V9.33551ZM9.02 9.33551C9.01843 9.23834 8.97858 9.14566 8.90912 9.0777C8.83966 9.00973 8.74618 8.97193 8.649 8.97247H7.349C7.3008 8.97194 7.25298 8.98094 7.20825 8.9989C7.16352 9.01686 7.12277 9.04344 7.08832 9.07715C7.05387 9.11086 7.02639 9.15098 7.00746 9.19531C6.98853 9.23964 6.97852 9.28731 6.978 9.33551V10.6085C6.97852 10.6566 6.98854 10.7042 7.00748 10.7485C7.02642 10.7927 7.05391 10.8328 7.08838 10.8665C7.12284 10.9001 7.16361 10.9266 7.20833 10.9445C7.25305 10.9623 7.30085 10.9711 7.349 10.9705H8.649C8.74617 10.9715 8.83978 10.9341 8.90933 10.8662C8.97888 10.7983 9.01869 10.7056 9.02 10.6085V9.34045V9.33551ZM12.258 9.33551C12.2567 9.23826 12.2169 9.14547 12.1474 9.07745C12.0779 9.00943 11.9843 8.97167 11.887 8.97247H10.587C10.5388 8.97194 10.491 8.98094 10.4462 8.9989C10.4015 9.01686 10.3608 9.04344 10.3263 9.07715C10.2919 9.11086 10.2644 9.15098 10.2455 9.19531C10.2265 9.23964 10.2165 9.28731 10.216 9.33551V10.6085C10.2165 10.6566 10.2265 10.7042 10.2455 10.7485C10.2644 10.7927 10.2919 10.8328 10.3264 10.8665C10.3608 10.9001 10.4016 10.9266 10.4463 10.9445C10.491 10.9623 10.5389 10.9711 10.587 10.9705H11.887C11.9351 10.9711 11.983 10.9623 12.0277 10.9445C12.0724 10.9266 12.1132 10.9001 12.1476 10.8665C12.1821 10.8328 12.2096 10.7927 12.2285 10.7485C12.2475 10.7042 12.2575 10.6566 12.258 10.6085V9.34045V9.33551ZM5.78101 12.5025C5.77969 12.4053 5.73988 12.3127 5.67033 12.2448C5.60079 12.1769 5.50717 12.1394 5.41 12.1405H4.11C4.0618 12.1398 4.01394 12.1487 3.96916 12.1665C3.92438 12.1843 3.88356 12.2108 3.84901 12.2444C3.81447 12.2781 3.78689 12.3181 3.76784 12.3624C3.74879 12.4067 3.73866 12.4543 3.73801 12.5025V13.7705C3.73932 13.8679 3.77922 13.9608 3.84895 14.0289C3.91869 14.0969 4.01257 14.1346 4.11 14.1335H5.41C5.50726 14.1343 5.60088 14.0965 5.67039 14.0285C5.73991 13.9605 5.77969 13.8678 5.78101 13.7705V12.5025ZM9.02 12.5025C9.01842 12.4054 8.97853 12.3129 8.90904 12.2451C8.83955 12.1772 8.74609 12.1397 8.649 12.1405H7.349C7.30085 12.1398 7.25305 12.1487 7.20833 12.1665C7.16361 12.1843 7.12284 12.2109 7.08838 12.2445C7.05391 12.2781 7.02642 12.3182 7.00748 12.3625C6.98854 12.4068 6.97852 12.4544 6.978 12.5025V13.7705C6.97852 13.8187 6.98853 13.8663 7.00746 13.9106C7.02639 13.955 7.05387 13.9951 7.08832 14.0288C7.12277 14.0625 7.16352 14.0891 7.20825 14.1071C7.25298 14.125 7.3008 14.134 7.349 14.1335H8.649C8.74618 14.134 8.83966 14.0962 8.90912 14.0283C8.97858 13.9603 9.01843 13.8677 9.02 13.7705V12.5025ZM12.258 12.5025C12.2567 12.4053 12.2169 12.3127 12.1473 12.2448C12.0778 12.1769 11.9842 12.1394 11.887 12.1405H10.587C10.5389 12.1398 10.491 12.1487 10.4463 12.1665C10.4016 12.1843 10.3608 12.2109 10.3264 12.2445C10.2919 12.2781 10.2644 12.3182 10.2455 12.3625C10.2265 12.4068 10.2165 12.4544 10.216 12.5025V13.7705C10.2165 13.8187 10.2265 13.8663 10.2455 13.9106C10.2644 13.955 10.2919 13.9951 10.3263 14.0288C10.3608 14.0625 10.4015 14.0891 10.4462 14.1071C10.491 14.125 10.5388 14.134 10.587 14.1335H11.887C11.9843 14.1343 12.0779 14.0965 12.1474 14.0285C12.2169 13.9605 12.2567 13.8678 12.258 13.7705V12.5025ZM14.575 2.29046V4.22546C14.5695 4.64964 14.3957 5.0543 14.0919 5.3504C13.7881 5.6465 13.3792 5.80984 12.955 5.8045H11.934C11.5086 5.81065 11.0982 5.64786 10.7926 5.35187C10.4871 5.05587 10.3114 4.65081 10.304 4.22546V2.28351H5.7V4.22546C5.69289 4.65071 5.5174 5.05579 5.21201 5.3518C4.90661 5.64782 4.49627 5.81065 4.071 5.8045H3.048C2.62382 5.80984 2.21487 5.6465 1.91109 5.3504C1.6073 5.0543 1.43353 4.64964 1.42799 4.22546V2.29046C1.05058 2.29743 0.690645 2.45082 0.424194 2.7182C0.157744 2.98558 0.00564335 3.34607 0 3.72351V15.0665C0.00396031 15.452 0.160588 15.8203 0.435562 16.0906C0.710537 16.3609 1.08143 16.5111 1.467 16.5085H14.533C14.9183 16.5104 15.2888 16.3598 15.5636 16.0897C15.8384 15.8196 15.9953 15.4518 16 15.0665V3.72351C15.9944 3.34658 15.8427 2.98654 15.5769 2.71924C15.3111 2.45193 14.9519 2.29819 14.575 2.29046ZM14.1 14.3595C14.0991 14.4418 14.082 14.5232 14.0496 14.5989C14.0172 14.6746 13.9703 14.7432 13.9114 14.8008C13.8525 14.8584 13.7829 14.9038 13.7065 14.9344C13.6301 14.9651 13.5483 14.9804 13.466 14.9795H2.5C2.41766 14.9804 2.33595 14.9651 2.25952 14.9344C2.1831 14.9038 2.11345 14.8584 2.05458 14.8008C1.99571 14.7432 1.94875 14.6746 1.9164 14.5989C1.88404 14.5232 1.86691 14.4418 1.866 14.3595V8.50146C1.86784 8.33508 1.93565 8.17625 2.05452 8.05981C2.17339 7.94338 2.33361 7.87889 2.5 7.88049H13.463C13.6294 7.87889 13.7896 7.94338 13.9085 8.05981C14.0273 8.17625 14.0952 8.33508 14.097 8.50146V14.3595H14.1ZM3.039 4.76745H4.05099C4.1967 4.76905 4.33709 4.71283 4.44133 4.61102C4.54557 4.50921 4.60515 4.37018 4.60699 4.22449V1.05151C4.60608 0.979414 4.59098 0.908175 4.56255 0.841917C4.53411 0.775658 4.4929 0.715672 4.44127 0.665342C4.38964 0.615011 4.32859 0.57532 4.26163 0.548582C4.19466 0.521843 4.12309 0.508533 4.05099 0.509458H3.03999C2.89456 0.507857 2.75443 0.564029 2.65038 0.665647C2.54632 0.767266 2.48685 0.906079 2.485 1.05151V4.22449C2.48578 4.29658 2.50077 4.36783 2.52908 4.43414C2.5574 4.50045 2.59849 4.56054 2.65002 4.61096C2.70156 4.66138 2.76254 4.70116 2.82945 4.72802C2.89636 4.75489 2.9669 4.76825 3.039 4.76745ZM11.919 4.76745H12.93C13.0758 4.76906 13.2163 4.71286 13.3207 4.61108C13.4251 4.5093 13.4849 4.37027 13.487 4.22449V1.05151C13.4849 0.905813 13.425 0.7669 13.3206 0.665281C13.2162 0.563662 13.0757 0.507588 12.93 0.509458H11.92C11.848 0.508401 11.7764 0.521622 11.7095 0.548338C11.6426 0.575053 11.5816 0.614777 11.5302 0.665159C11.4787 0.715541 11.4376 0.775609 11.4095 0.841917C11.3813 0.908224 11.3665 0.979469 11.366 1.05151V4.22449C11.3665 4.29657 11.3813 4.36784 11.4095 4.4342C11.4376 4.50056 11.4786 4.56068 11.5301 4.61114C11.5816 4.6616 11.6425 4.70144 11.7094 4.72827C11.7764 4.75509 11.8469 4.76838 11.919 4.76745Z" fill="#CED0D4"/>
</svg>
