<svg width="11" height="15" viewBox="0 0 11 15" fill="none" xmlns="http://www.w3.org/2000/svg">
<path fill-rule="evenodd" clip-rule="evenodd" d="M5.498 0.511482C6.95413 0.509093 8.35159 1.08519 9.38301 2.11304C10.4144 3.1409 10.9954 4.53637 10.998 5.9925C10.998 10.4775 5.534 14.5065 5.534 14.5065C5.534 14.5065 0 10.3865 0 5.9925C0.00265004 4.53672 0.583299 3.14158 1.61429 2.11378C2.64528 1.08598 4.04222 0.509624 5.498 0.511482ZM5.498 2.63648C6.13545 2.64634 6.75576 2.84442 7.28099 3.20576C7.80622 3.5671 8.21293 4.07557 8.45003 4.66737C8.68712 5.25916 8.74403 5.90784 8.61357 6.53187C8.48312 7.1559 8.17112 7.7275 7.71681 8.17475C7.2625 8.62201 6.68615 8.92499 6.06015 9.04566C5.43415 9.16634 4.78645 9.0993 4.19844 8.85297C3.61043 8.60665 3.10834 8.19202 2.75526 7.6612C2.40219 7.13038 2.21388 6.50704 2.214 5.86951C2.21727 5.44149 2.30484 5.01831 2.47173 4.62415C2.63861 4.22999 2.88153 3.87257 3.1866 3.57233C3.49167 3.27209 3.85291 3.03491 4.24968 2.87434C4.64645 2.71376 5.06998 2.63292 5.498 2.63648Z" fill="#FF5530"/>
</svg>
