<svg width="18" height="15" viewBox="0 0 18 15" fill="none" xmlns="http://www.w3.org/2000/svg">
<path fill-rule="evenodd" clip-rule="evenodd" d="M3.63926 8.7886C3.63849 8.63197 3.66925 8.47679 3.72973 8.3323C3.7902 8.18782 3.87914 8.05698 3.99125 7.9476L10.7683 1.34756C11.0485 1.08707 11.3765 0.88334 11.7342 0.747586C12.0851 0.596838 12.4615 0.514022 12.8433 0.503568H16.7862C16.9447 0.501624 17.102 0.531693 17.2486 0.592007C17.3951 0.652322 17.528 0.741654 17.6393 0.854581C17.7541 0.960424 17.8456 1.0891 17.9077 1.23239C17.9699 1.37567 18.0014 1.53036 18.0002 1.68655V5.53055C17.99 5.90408 17.9046 6.27177 17.7492 6.6116C17.6117 6.96121 17.4037 7.27878 17.1383 7.54458L10.3603 14.1616C10.2483 14.273 10.1151 14.3606 9.96857 14.4194C9.82201 14.4782 9.66512 14.5068 9.50725 14.5036C9.18624 14.5067 8.87678 14.384 8.64525 14.1616L3.99125 9.61459C3.87867 9.50871 3.78927 9.38066 3.72869 9.23849C3.6681 9.09632 3.63766 8.94313 3.63926 8.7886ZM14.1092 4.3016C14.3392 4.52417 14.6467 4.64859 14.9668 4.64859C15.2868 4.64859 15.5943 4.52417 15.8243 4.3016C15.9365 4.19322 16.0258 4.06334 16.0868 3.91971C16.1478 3.77607 16.1792 3.62158 16.1792 3.46554C16.1792 3.3095 16.1478 3.15507 16.0868 3.01144C16.0258 2.86781 15.9365 2.73792 15.8243 2.62954C15.5943 2.40697 15.2868 2.28256 14.9668 2.28256C14.6467 2.28256 14.3392 2.40697 14.1092 2.62954C13.9967 2.73778 13.9072 2.86761 13.8461 3.01126C13.7849 3.15491 13.7534 3.30942 13.7534 3.46554C13.7534 3.62166 13.7849 3.77624 13.8461 3.91989C13.9072 4.06354 13.9967 4.19337 14.1092 4.3016ZM0.352255 7.9476L7.12826 1.34756C7.40872 1.08686 7.73712 0.883111 8.09525 0.747586C8.44515 0.598748 8.82011 0.517634 9.20025 0.508572H11.3243C10.9428 0.518838 10.5668 0.601665 10.2163 0.752591C9.858 0.887864 9.52953 1.09164 9.24924 1.35257L2.47124 7.95254C2.35927 8.06198 2.27048 8.19288 2.21018 8.33737C2.14988 8.48186 2.11929 8.63698 2.12024 8.79355C2.11776 8.94885 2.1477 9.10297 2.20814 9.24606C2.26857 9.38915 2.35817 9.5181 2.47124 9.6246L6.92725 13.9676C6.77801 14.1259 6.61012 14.2656 6.42725 14.3836C6.25576 14.4767 6.06224 14.5216 5.86725 14.5136C5.54623 14.5168 5.23673 14.3941 5.00525 14.1716L0.352255 9.6246C0.238176 9.51778 0.147873 9.38809 0.0872249 9.24405C0.026577 9.10001 -0.00306114 8.94485 0.000249771 8.7886C-0.000804798 8.63193 0.0298312 8.47665 0.0903224 8.33212C0.150814 8.18759 0.239916 8.05681 0.352255 7.9476Z" fill="#CED0D4"/>
</svg>
